/* XPM */
static char *a069f24782f048e8d687dfa392befa63[] = {
/* columns rows colors chars-per-pixel */
"35 35 2 1 ",
"  c xx",
". c #9D2619",
/* pixels */
"                                   ",
"                                   ",
"                                   ",
"                                   ",
"                                   ",
"                                   ",
"                                   ",
"                ...                ",
"                ...                ",
"                ...                ",
"                ...                ",
"                ...                ",
"                ...                ",
"                ...                ",
"                ...                ",
"                ...                ",
"                ...                ",
"      .......................      ",
"      .......................      ",
"      .......................      ",
"                ...                ",
"                ...                ",
"                ...                ",
"                ...                ",
"                ...                ",
"                ...                ",
"                ...                ",
"                ...                ",
"                ...                ",
"                ...                ",
"                                   ",
"                                   ",
"                                   ",
"                                   ",
"                                   ",
"                                   ",
"                                   "
};
