/* XPM */
static char *_191af7ecbbf46a8b7afef98089bc6ab[] = {
/* columns rows colors chars-per-pixel */
"128 128 77 1 ",
"  c #010000",
". c gray12",
"X c #2B230F",
"o c #3B2F17",
"O c #232323",
"+ c #2F2F2F",
"@ c gray20",
"# c #373737",
"$ c gray23",
"% c #4B0000",
"& c #570000",
"* c #630000",
"= c #6F0000",
"- c #770000",
"; c #43331B",
": c #4B3B1B",
"> c #573F1F",
", c #5F4323",
"< c #6F4B27",
"1 c #774F2B",
"2 c #434343",
"3 c #4B4B4B",
"4 c gray34",
"5 c #5B5B5B",
"6 c #676767",
"7 c gray45",
"8 c #7B7B7B",
"9 c gray50",
"0 c #830000",
"q c #8F0000",
"w c #9B0000",
"e c #9F0000",
"r c #A70000",
"t c #B30000",
"y c #BF0000",
"u c #CB0000",
"i c #D70000",
"p c #DF0000",
"a c red",
"s c #9F4F00",
"d c #B75700",
"f c #83532F",
"g c #875333",
"h c #8B5B33",
"j c #935F37",
"k c #9F633B",
"l c #A3673F",
"z c #AB6B43",
"x c #B77347",
"c c #BF7B4B",
"v c #C3774B",
"b c #CB7F4F",
"n c #D38353",
"m c #DF8B57",
"M c #EB8F5B",
"N c #F3975F",
"B c #FFAB5F",
"V c #FF9F63",
"C c #EBA377",
"Z c #FFA773",
"A c gray56",
"S c #9B9B9B",
"D c gray67",
"F c #B7B7B7",
"G c #BBBBBB",
"H c #FFB383",
"J c #EFBB9B",
"K c #FFBB93",
"L c #FFBF9F",
"P c #FFC7A7",
"I c #FFCFB3",
"U c #FFD7BF",
"Y c #C3C3C3",
"T c LightGray",
"R c #DFDFDF",
"E c #FFDBC7",
"W c #EFEFEF",
/* pixels */
"++++++++++++++++++++++++++++++++++++++++++++++++++++++++++++++++++++++++++++++++++++++++++++++++++++++++++++++++++++++++++++++++",
"++++++++++++++++++++++++++++++++++++++++++++++++++++++++++++++++++++++++++++++++++++++++++++++++++++++++++++++++++++++++++++++++",
"332$$$$$$$$$$$$$$$$$$$$$$$$$$$$$$$$$22222222222222332222222222222$$2222222233333333444444444444444444444444444444444444444444444",
"334777777777777777777777777777777777763222$#++2223344677666666666666666666533333334445667777777666655554444444444444444444444444",
"34777777777777777777777777777777777777679675$@+2234466666666666666666666666533$2334465677777777766655555544444444444444444444444",
"467SRWWWWWWWWWWWWWWWWW99999999999999999999999999999999999999999999999999999999999999999999999999999999999#5554443322222222222233",
"466TWWWWRTRTTTTTTYYTYY4#################################################################################4#A999977777777777777799",
"936YRRTGYDDFDFGYDGDFDY4#...............................................................................45#YYYYYYYGFFGGGFFFFFFFFF",
"G75GRTYYSSDSSDFDDFSDDS4#.$$$$$$$$$$$$$$$$$$$$$$$$$$$$$$$$$$$$$$$$$$$$$$$$2$$$$$$$$$$$$$$$$$$$$$$$$$$$$$75#ARRRRRRRTTTRRRRTTTTTTT",
"D73FTYYSFSSSSSADSSSFFD4#.54444454554444545454554455444555454455545544544444454544444545544445454545544495#7FFGGGGGGDFGGGGGFGGGGG",
"993SYGFSSSDSDAAASSSSDS4#.68786687766767787867667767897567776877676777787768876687866877667677878676677795#5SSDSSDSSDSADSSSSASSDS",
"A949YGSSSSSSASSDSSSSSD4#.57768867688786776776767877666878777677768677676687777677688676887867767767678795#6AASSASSSSSSASSYASAAAS",
"S947GFSSDDADD9SASYSADD4#.6768687687767887888978768655544322$$$$$$$456677777888876868768776788788897876795#6AS9ASSAAASSAASSSDASSA",
"A956DFS9SSAADAAAAA9A9S4#.668876777667877677666775455433332$$$++OOOO##$47866677768876777667877677666778795#6ASASA9SSSAAAADSASSSSA",
"A944DDAASAAD9AAAASADDA4#.66766777677766696786754444664444433$##+++++OO#$478677767667776777666967867777795#6S9SS9SASSSASAADASDASS",
"A753SDASAAS9ADASAASAAD4#.6777767676676876767554468A86664454432$$$$##+OOOO$4767777776767667687676778668795#49AAAS9AAAASSSAS9ASSAD",
"9633ADSA9DAAAADA9SASDA4#.6877676767777777774448S8S8664446564432$$$$333$##+O$46787767676777777777676786795#599AAAA9S9SSSA9DAASASS",
"7622SFSAAA9A9A9DAASAAD4#.576776778766667667477A87664546646644432$$$3443$$#OOO$476776778766667667777777795#4A999AAA9DADADASSSAASS",
"95#2ADAA99A9AADASASSDS4#.678778676697777875555447644446655664443$$3444433$+OOOO48778676697777877777768795#69AADA9AG9AA9A9AAA9SSA",
"63#2ADD9SADS99AASSAADS4#.67766787786877677cmMccj4544556644466443$$4455424$#+OOOO4667877868776776867776795#7AADA9ADAA9S9DSSASASAA",
"63+2ADFSSSAAASAADAASAD4#.67797768686777868IJHCVMc454444654477444O$44646$22$#OOOOO477686867778688677787795#6A9SDAAA9ASSAAASAA99A9",
"43+29DDS9ASA9SDS9DSAAD4#.6876777676866867CUUICZnmc423,:444777743O@66646$43$#@OOOO$77767686686767786767795#5SSD9SAASA999766676667",
"2#+29SGSAFSDDSSDASSSSA4#.6678767776777777IEIJKHZBmx4<hh,54677643O$66777@42#++OOOOO46777677777778768778795#49AASA9777666656666655",
"$O+$99DSSDSDSFSADSSAAD4#.667777777868676LEPIPKPLZBm4fzh144446443O@44646@@#O+O+OOOO$7777868676786876877795#3676666555566554433333",
"+O+277AA9ADSSSSSSSSDSS4#.67676777677678AUUJKPPJKKZMbzMnj$2333422OO$3443$++O+O+OOOOO7776776789776677666795#2666665555555433332$##",
"OO+267997797997979999A4#.68769767777886LPUPPPKPLCVVMnMVj$$233242OO@$333$@+OOOOOOOOO7677778867688776776795##44444333333332$#+OOOO",
"OO@$4676777667666777974#.66886777776567IUPKPJPPLKVMmmMMl$$$33342OO@$$$$$++OOOOOOOOO7777765676866768778795##333332$$$#@@+++OOOOOO",
"+++#2464333344455656664#.6767778676887KIIIPPLLPCVNMMVBNz$$$$22$$O:$$2@$#+OOOOOOOOOO7867688786777777666795#+2$$$$+++++OOOOOOOOOO+",
"#++@@$22##$233333455554#.6877766877677IncNPPPPKHVBVMBmNx$$$$2$$$O:@$$2#+OOOOOOOOOOO6677767767677787777795#O+++++++OOOOO++++@+@@@",
"##++OOOOOO+@#$$23333334#.6766877777777hXOjnVCJCBBNBBVZVc111111111<$$$O+OOOOOOOOOOO$7777777768867766678795#.OOOOOOOOO++++++@#$$$$",
"2$@+OOOOOOOO+++++@@@@@4#.66866777777677OOhMVBKKBMBNBZVKccxzxcccxcnj1:OOOOOOOOOOOOO27777776776767788876795#.OOO+++++++++@$$223344",
"332$++OOOOOOOOOOO+++++4#.56688776667767h: kmmCJHVBHNCKZCBBBMBNcVnczz1:OOOOOOOOOOO$57766677677786676677795#.++++++@##$$$$23444444",
"A9642$$#@+OOOOOOOOOOOO4#.6876777797686MjhOckcVPLCCZKLKVZMVMMnNMnPPHmf1;OOOOOOOOO$477777768686677866776795#O$$$222222223444444569",
"FDSA96543$$$$$+OOOOOOO4#.667677786876SKk,1nzVMKHPLCKHNHVVMnMNnNPZnnVn<,OOOOOOOOO3677786876866676676779795#26322222334444447AASSF",
"RTYGDDSA9655432$#@@@@@4#.67786777866SPZzn<bVPPLLJPPCHHVNMnVnnnMVzmZCN,,oOOOOOOO26867778666878767877776795#37632223444469ASDGTTTR",
"YYRRRRTGFDSA97654333334#.4767867678SPZMcMKVCKUIPJJHKVMMmmncncMMj,,zZN,:;OOOOOOO46786767888677687668776795#7F95$$234469ADGTTRRRTY",
"FDYYTRRRWRTGFSSSA777664#.6787677766IKVmcxCPPUUUIPHHZVBmNnmncMcnkzg1Zn,:;OOOOOO$78767776666776867876688795#7S76$#2457ADGRRRTTYGGG",
"FDFGYYYRRWWWWWWRTYGGGG4#.6887777767ZZBnMkmHUUUIJZZVVMMNcMnnmnnnczMcZc;::;OOOOO488777776777868687877967795#6963$@$56ADYTRRYGGDFFD",
"ASSFFGFGYYTRRWWWWWWWWW4#.667877778777kxjzcVJIPLHVBBVMmcMcnncnnckKMMnz;;,;OOO+$767877778777786867677776795#5763$@$56DYTRYYGFDSDSS",
"DASSDDFGDSDGYYYYYTTRRR4#.676677677687$+$czcHCHCBVVVMcnMccmcccncMmNMk1;>,;OOO@4776677677687668676767688795#5763#@$67GYRYGFFGDDDDS",
"ASDDDSDDSFSSDFGYYSFSFF4#.577886777876$+$BmNHHHVMMMMMnncncxcxccmMnnz1;;>,;OOO@6677886777876786887777766795#6963#@$69GTTGFFFSFDDSS",
"DASASDDSSSDFSDDADADSGG4#.687667876868$+$CnBLHHVMVNVNncMcnzzzkkzxzj,;;>,,;OO@47887667876868677677777767795#6763#@$69GTYFFDDFDFDDD",
"SDDADSDDSADDSDSSSFADDS4#.666687677667$ OcnVLCKZVMBMnMmzcjzjhgggjf;;;><<,;o,477766687677667878776768787795#5763#@$69GTYFDDDSSSDDD",
"DASDSDASSDDSFSSSSASDSS4#.687767867877711kcKHLJCZBMMVmnczzkhhgjhfg1,,f11,;;>477687767867877777677776677795#5762@+$69GTYFSSDDSSADA",
"AADSDSSAFASDSDDSSSSASD4#.676767678667zxxzcNMZHCVVBBnnnxzk1ghjhf1gjffg1<,;;<688776767678667666766677666795#7962++$69GTYGSSSAASDAD",
"SDSDADSDDDSSSDSDSSDSAS4#.57777687669zMCCnVVVVZKVZVMMnnzzhjjhhf1fjzzkg1<,;;,876677776876697787787877767795#4762++#69YTGSSFSSSSADS",
"DSDSDSASSSSDSSDADASADS4#.66776777786zMCCNMMVBVHZZBVMncxkjhghh1fhjzjjj1<,;;,677767767777866777766676777795#5762+++69TTFDDSDSADSAA",
"SDADSSSSSSSDSSAASS9ASD4#.68679766768xnCVBNMMVBHHVNmcxxkzkhkkhhkzczxz11,:;;,j66886797667688766787777786795#5962+O+69TTFDASAADSAAS",
"ASDDDFSDASSAAADAAA9SSS4#.566766886876zbVNMmmMMVVmMncckzzhkjkzzzzzkzh1>:;;,hjj8666766886876778766787666795#4762+O+69YTFDDDSASSAAA",
"AASSFDDDSSDASDADSDAAAA4#.6787787786686zcnMmncMMMMczzzhjjkhjkxczzxj1,::;>ghgh<j878778778668666778667678795#5662+O+69YTFDAADAAASAS",
"99ASDDSSSDSSDAAADADDAS4#.66866766777688xzccnnxnxzjkhgkzzjgjcmncxj1,:,1hkhg<1<j668667667776888677886877795#4662+O+69YTFSSA9DADAA9",
"66799999AAASSASAADASSA4#.686777776877676786kkxzhgkhkzzlkjjznccxh<,jkkzkhg,<,1h686777776877676786768666795#3642+O+69YYFD9A9999776",
"3456666667799999999A9A4#.66678677766876767678hkkjlzcxlkjjzznnczhjjzkhkggg11111166786777668767676786877795#243$+O+69YDS9777666653",
"33334545555666766766764#.57776777777677787877767zzxbxkjhkcmVccxkzzkhkgj1g<1<:1<1h767777776777878777676795#+3$++O@69FS96565444433",
"33333333445566666666664#.686687776777777677687677ccnxzjzxcMnncjkhhkkhhk11<<:<<1g11h7776777777677687677795#O$++OO+#99965544443333",
"22333333333333333333334#.6668678777776876778668778nbczzccMNcjhjhkzjhzzjk1,,<ghgg1g<1h77777687677866877795#.++OOO+#266532222222$$",
"O++@@@@@@@$2$$$$$$$$$$4#.678786878778767766677676zczzkcznmczjjkzhzkzjk1:::111gg111g<11h778767766677676795#.OOOOOO++#@+@++++++OOO",
"OOOOOOOOOO@@++@@@@@@@@4#.68666767677676776767677czhzzkxcncgjjxzjzzzz1>>><1kzzzzzkjjggg11h6767767676777795#.OOOOOOOOOOOOOOOOOOOOO",
"$@+OOOOOOOOO++++++++++4#.5687777787777777867777czg,hkcxzkhkxxxxccc1,>gkjjxxncczxncczkkhg11h77786777788795#.OOO++OOOOOOOOOOOO+++$",
"$$$$#@++++OOOOOOOOOOOO4#.676778766688776768777czh1,,hzckkxxcnzxz1>,1jkxncmnnncnncnnmvvzkh111h768777777795#O@@@@+++++++++++++++23",
"3322$#++++++++++OOOOOO4#.66677777787666768677cz1111<,xcxccMcxc1,>gkzxbxccxxznnMccnnnnnMvzk<11h86777766795#O$$$$$$####$$$#+@@@@44",
"444332$@++OOOOO+++++++4#.6878668776676778786ckhj1<<hxzkcnnnzjX><jkccccncncnmcccmnmncmnMczckh11h8676677795#37777777777766$$@+@234",
"4444432$#@++++++++++++4#.577688676887867767lkj1gh1zcxnMMMMx1X,gjkczccxccxncccncncxmmcncnMxzg1,<h767678795#377777777777776$$@@234",
"44444456656666666566664#.67686876877678878kjjgh1jncMMMmMnc<X,,1zcxcnccnnnncnnnmccncmncMnnxxzh,,1h77876795#ARRRRRRRRRRRTTS7$++#34",
"44444566666666666666664#.6688767776678776kh11<1knnMNVVVnc<X>1hzxzcncmmcnncxxxzkjxcckcxxzxcck1;:,,16778795#ARRRRRRRRRTYFS97#+++34",
"444457ASSGYYYYYYYYYYYY4#.66766777677766661<<<1znnMNVVVnz1X,h1kcznccccxcxccxkzkkkzkzzkhgjhhgh1k1:::1777795#6DSDFFDFFFDSA764#+++33",
"43344ADYRRRRRRRRRRRRRR4#.6777767676676871o,<1gk:hVCHNmc1X;,gkxcccccmnmcczzkzkkkxkzzkkghg1j1,,<h1,:,668795#7SDSSGDDSSS97662@+++33",
"43344STRRTGFFFFGYFFFFG4#.68776767677777g,:X,1jhoXgMHMx<X:,1kcxzncnnkczjkzzzkkjkzkhgzkkjzzhh11::,,:;786795#6AADSDASSDA9764$@OO+$3",
"43245DRTGFSFDDDSSFDSSS4#.57677677876661g>>::1k1XXX1Mc1o;<gzxxcmccncnzzk1g<hzjzjkkhjjzkzkjgg11,;X:,:777795#6SAASAFASSS7642#@OO+23",
"43$56GTYDDFFSFSSSSFSSS4#.678778676677kjhh1:1zh><1XX,:;;1gzxnmncnnxxkzhjh,>1jcxcxccxczczjxkzhh1,:X,:768795#6AFSASDSSAA963$@@OO+$3",
"33$66YTFSSADSAASSSADAA4#.677667877868kkgg1,1k1,1,1>>,1<1jxcncmMncccxxkg,,o:,hcxxczzxnczzhzzhgg,>>::776795#7SSDADSASS9963$@@OO+23",
"33$66TTDSSSDASS9ASDASS4#.67777768686zjjj111,h,111<11<<hcncmNnmmnxcxkz11,o:1cxcxnnncxcnzzjcxkz<,,;::787795#6ADADADSASA763$@@OO+23",
"33$66TTFSDD9DSDS99SASS4#.68767776768hhkgg<1<j>1kzzkhjxcczmMnnxcMczzzjg,>X1jkcznmnkcnmzzjzzxzj1>,::;767795#6DASASSAAAA773$@@OO+23",
"32$66TTFASSDSDASSSAADA4#.66787677767zkjhg11<:ghzxzzzkcxxxxczkcMnzczjh1,oXj1cccncxcncnkzgjcckk1,,:;>778795#6DDSAAADAAS773$@@OO+23",
"32$66TTFSDSSASSSAADSAD4#.6677777778jzhhgg111,1jzzzkxxzxxhzghjxcccjzhg,;XX,cxcmnzcnMnckzhhcxkk1,,:::877795#6DSDSADSAFS963$@@OO+23",
"33$66TYDSSSDSDSSDSDSFD4#.6767677767zjjkkg1111zkkkzcxnMMVnxxczg1kzzk1,,;XXzzxcnxxcMmnczj1kzxzk1,,:::666795#7DASDSSDSSS763$@@OO+23",
"43$66TSSAASSDDASAFDDAS4#.6876776777zzkhh11111kzzkcMMnmVncxczck11gz1,,:XXhccmczxmnnMckkg<kcnjh1,,:::776795#5ASDADFASSF763$@@OO+23",
"43$66D9999S9SDSDASAASS4#.668867777zkghj1h1111xzznMMMMMVcnxcbcj1hkh<<>;ozkkkzccccVNzczj11kjck11,,:;>778795#7AASDAASAAD773$@@OO+23",
"43256S77679999AASAFAAS4#.676777867kzxjkhg111hzkxMMMVVVNccncch,1kjh1,<XhkzzkcxcnMMnczz1<<zcmzh1,,:::666795#7SSASDADADS773$@@OO+23",
"43225665557777AAAASSSS4#.687776687zjzkhh1111zzzcNVVVVmccccck,1zhj1,,,DSDDNncncmVnnck111,zcNjg>,::::777795#6ASDADSADAD963$@@OO+23",
"432226555555679S9AS9S94#.676687777zzzkhjh111hkjcnxnnccccccc1,gzg<,,,D8SDYYDDnnNMcxxg<<,,xnBjh,,::;3678795#7SASAASSASS663$@@OO+23",
"432222322$$255667979694#.66866777kzjhjjhg11kxzzjg;X:hkcccxh,1hh,,,,S44@$@@$DSipnnz11<<,,xmVz1,,::>4876795#5999AAAAS9A7632@@OO+23",
"4332$###@++@22567666664#.56688776kjkkhkhh11kkkzjj11XX:,kcnh;1j><,,6S4  @@$@DSzuywg111,,,cNVz1,,:::4677795#5S99DASASAS7632@@OO+23",
"4432$##@++OO@$233333334#.6876777zxzhzgkg11hxkxcccnc;;XXX,,;h1,,,74$Y7  YDDDDDAkpuw11<<,,cVMz1,,:>:6776795#4AA9A9SA9A9763$@@OO+23",
"4433332#++OOO+@$$$$$$$4#.6676777zgzj1khh11ghzznCVNz;;lf111<h,,,7S6@YD4 5DSSAAA8uiuee1<,,cmBk1,,:;:677A795#5999SA9SS9S963$@@OO+23",
"444444332@+OOO++++++++4#.677867zzckzzkjj1<zzclxnCNn>;xzhhgk,,,07S4+        @4885iuyee<,,cnNkg:;,;:7776795#59A9A999999763$@@OO+23",
"4444444432@+OOOO++++++4#.476786zzxxcxgh11zzjznlnCMc,>ccghh1,>qr7S44         $885yyyte-1hcczh1::;o:8776795#49999999997653$@@OO+$3",
"44444444332@+OOOOOOOOO4#.67876zkzkzzzh1<1kkcxnCMNVc1,xljhj,>qryd7SA864$+ 74@@885ttttqw01hgh1<>o;;:6688795#266666666666432@@OO+$3",
"444444433322++++++++++4#.68877kkkzzzzz1g1xzccnCCCVch1zjgj,,qrtya7SASSS6$ 47$$761treqqqq-khj1,:oX;:7A67795#266666666654422@@OO+$2",
"4443333332322##@++++++4#.6678ccxzkjjk111hjzxccmMMVnxzhg,,zfwwryupAS@@@@+ 557766,ewwww0q--11:;;XX,:7776795#+3333333333322#@@OO+$2",
"44433222222222222222224#.6766xckkjgkj<1h1zkxxcnVNVczkhj,jzkjrwrpu68@@$$$@466661eqqqw000=0>:::oX;,:7688795#+222222222$$$#@@OOO+$2",
"44455555666666554433224#.5778czjzzxjhzzhkzzcxcmnnmchh,>NMmccj,yypp8A8A76666661qwqww-0--=*%>::;X;,57766795#O@@@@@@@@@@@@@@@OOO+$2",
"44555556666666655444324#.6876zxkkjxhkkkkhkzxcccxccchh,,jVMmncxxsspu786666661eewww000q-==&&>::o;,,67767795#O@@@@@@@@@@@@+OOOO+@$2",
"356ADDDDDDDDDSSA9777774#.66xcmczzzg11cxzzzjhgjhjhncnVn1kzNMmcccz1,yyiiuttwwweqq-q-w--**&&%%;;;,,168787795#.OOOOOOOOOOOOOOOO++$$2",
"366DYTTTTTTTTTYGDS99974#.68cnccnxzzk1cckkkzhhghhhxnCHch;,kMMmnxxk1>;yppirrteewqww0---&*=*%%;;,,,176677795#.OOOOOOOOOOOOOOO++##$2",
"266DTRRRRRRRRRRRRTTTTT4#.67xncnxbnzkczzjzjjhkkkkjMZCJMz,;>zMNcccxk1>;yweeww-ewwq---*&*=%%%X,,,,<<77666795#.OOOOOOOOOOOOOO++@#2$2",
"266DTRRRTYYYYYYYYYYYYY4#.57ccncncxxnccczkzzzkkzkkMZJKMMk>,zMVNczxck1>Xyreweeqq000--&**&%&X;,,,11k77767795#.+++++++++++++++@#$2$2",
"266DTRRTYDGSSSSDSDFFFF4#.6677xncccncccczkjkjzxncNBZZMcNMlhxmBVNcxzjh,>Xyqqw0q00=-*&**%%&X;,,,<<1g76777795#.+++++++++++++@###$$$2",
"266DTRTGDDSDSSSASSDDDD4#.6867ccccncmnnczzzkzknnNVVNcnccMMxnNmMMccjkk1,>Xqwqw0-q--*=*&%%X:,,,<11hk77786795#O#$$##########$$$$2$#3",
"266DTTGDAAASSSFASDSSFD4#.566766nncnxxnnncxzxccxmVMNNmxnnnNMBBVNcckkzh<,;&0w-q0=&**&%&&X:,,,11ggh687666795#$566555555555555552$#3",
"266DTYDS9ADAAADSSSFFSS4#.678778ccnz78cxxcxczkccMVNMccxcnnMNnMmncmzkzhg,;Xwwq--0****&%X:,,,<11hjzk67678795#$666655555555555555$#2",
"266DTDDDASASADSSSSSDSS4#.6686676677768877cnnnzcNNnczjczkjxcMVMnmczz1g<,,;&0-==&%&%%%X;,,,>1hkkkzx86877795#6SSSSSSSSSSSSSSSSA64@3",
"266DYDAS9AAADADSASDADS4#.6867777768776767bcnxczmncxzczxkzkjncnccckzhg<1,;Xq=-*&&%%XX;,,1<11hgzxzx68666795#7YYYYYGGGGGYGGGGDA62@3",
"266DYDSSAAAAASA9ASSAAS4#.6667867776687677nnnncmccxcxxzkxxg1gggggh1g111<1:;==*%%%%X,,,,<11jjkzzxxc86877795#7DFFFGGGFSSFFFFDS962#3",
"266FYFSASAADS9AS9SAFSA4#.5777677777767778nNnnnccccxxzxxzzhggggh1gkh11<111;;&=%%XX,>1<11hjjzzzccmc77676795#6SSDDFSSADASSSDSA762@$",
"266FYFFSDADAAA9ASASSDA4#.68668777677777767cnVnccnccncnccxzczczkkhghjghjgh,o&%%,g1<1gghgzkzcccxcmc87677795#7DSDSDSADSSFDDADA762@$",
"266FYFGASDASA9A9SAADAD4#.666867877777687677nxxmccmnnnnnnccccxzzkzzkgkkhjh1,%%,1,1g1hkzzzzxxMncnnc66877795#5FDDSSDSSDSSAASAS762@2",
"266FYFFSSA9A9AASSSSASA4#.678786878778767766677xnnnMcmnMcnmnmnnnnzcxxjkzjz1h<<1ggjhkjzzmccnncMVnc677676795#6SAASDADDASAFAAAS762$2",
"266FYFSSAASAAGASAADDAS4#.6866676767767677676767cnVnMMnmNnmcmmMncnccxbczzzxkzjzkzgjkzzccnnxccmmz7676777795#6AFAASDAASAADSSSA762$2",
"266FYDSASSASADSA9SSASA4#.568777778777777786777788687xMNMNMVVMNMBVVMMmMMccxxncczxnccccnmMnc777786777788795#5ADSSASDADADSASSS762$2",
"266FYDSDSSSASSASAAASAA4#.6767787666887767687777777677MMNMVMMVnmcmmncncnMnMMnnnmncnnmccccn8776768777777795#5DSASDADSADADSADA762$3",
"266FYDSDSDDSASAAS9A9A94#.66677777787666768677776678766nMVMBVmb78678778xcnccxmnMnnmmmc77876667686777766795#79DSASA9ASASA9AD9652$3",
"266DYDFSADAAAS9D9AASAA4#.687866877667677878676677678A75cmMMnn7767677778ccxnncxxncbczn77667677878676677795#6S99999A9AS9ASAA6552$3",
"266DYSSSSSASS9ADSA9SSS4#.57768867688786776776767877666878777677768677676687777677688676887867767767678795#477977A7979797975543$3",
"266DYSDSSADADADSASSASS4#.67686876877678878889787686777776768866887786677777888876868768776788788877876795#26666666666666655542$3",
"266DYDSASAADSDADSAAAAS4#.56777777777777777777777777777777777777777777777777777777777777777777777777777795#2666666666666655543#$3",
"266DYFDAAASDSADAADAASS4#.49999999999999999999999999999999999999999999999999999999999999999999999999999995#$555555555555554432@@3",
"266DYFFDAFD9ADSDADASDS4#255555555555555555555555555555555555555555555555555555555555555555555555555555555#+2222222222223332#@@+3",
"266DYFSAD9SASSSAASAASA4###################################################################################O@@@@@@@@@@@@@@@@+OO+3",
"366DGDA97979979999999994O..................................................................................OOOOOOOOOOOOOOOOOOO+3",
"356SDA7665665577777779763$$#++OO..OOOOOO.O..........OOOOOOOOOOOOOOOOOOOOOOOOOOO........O+++O..............OOOOOOOOOOOOOOOOOOOO$3",
"33599975555555555555555554332$@@O+222$@OOOOOOOOOOOOOOOOOOOOOOOOOOOOOOOOOOOOOOOOOOOOOO++$333$#+++++++++++++++++++++++++++++++++$3",
"434595544444332$$$$$$$$$$$$$#@@OO+2222+OOOOOOOOOOOOOOOOOOOOOOOOOOOOOOOOOOOOOOOOOOOOOO@+$44442$+++++++++++++++++++++++++++++++@23",
"4333432$$$$$$#++++++++++++++++OOO+2232$@@+OOOOOOOOOOOOOOOOOOOOOOOOOOOOOOOOOOOOOOOOOOO@$3444443322222222222$$$$$$$$$$$$$$$$$$$234",
"432+@@@@@+++++OOOOOOOOOOOOOOOOOO++$332$$+@@@@@@@@@@@@@@@@@@@@@@@@@@@@@@@@@@@@@@@@@@@@#$34444444333333333333333333333333333334444",
"43$@+OOOOOOOOOO+++++++++++++++++++#$2$$$##+++++++++++++++++++++++++++++++++++++@++++##$23444444444444444444444444444444444444444",
"$$$$$$$$$$$$$$$$$$$$$$$$$$$$$$$$$$$$$$$$$$$$$$$$$$$$$$$$$$$$$$$$$$$$$$$$$$$$$$$$$$$$$$$$$$$$$$$$$$$$$$$$$$$$$$$$$$$$$$$$$$$$$$$$",
"$$$$$$$$$$$$$$$$$$$$$$$$$$$$$$$$$$$$$$$$$$$$$$$$$$$$$$$$$$$$$$$$$$$$$$$$$$$$$$$$$$$$$$$$$$$$$$$$$$$$$$$$$$$$$$$$$$$$$$$$$$$$$$$$"
};
